# xmcd
#
# Track frame offsets:
#	150
#	19847
#	39127
#	56669
#	76452
#	91267
#	108822
#	124299
#	142027
#	165097
#	180449
#
# Disc length: 2649 seconds
#
# Revision: 1
# Processed by: cddbd v1.5.2PL0 Copyright (c) Steve Scherf et al.
# Submitted via: dBpowerAMP V4.0
#
DISCID=7e0a570b
DTITLE=Rascal Flatts - Changed
DYEAR=2012
DGENRE=Country
TTITLE0=Changed
TTITLE1=Banjo
TTITLE2=Hot In Here
TTITLE3=Come Wake Me Up
TTITLE4=She's Leaving
TTITLE5=Let It Hurt
TTITLE6=Lovin' Me
TTITLE7=Hurry Baby
TTITLE8=Sunrise
TTITLE9=Great Big Love
TTITLE10=A Little Home
EXTD=
EXTT0=
EXTT1=
EXTT2=
EXTT3=
EXTT4=
EXTT5=
EXTT6=
EXTT7=
EXTT8=
EXTT9=
EXTT10=
PLAYORDER=
